<svg xmlns="http://www.w3.org/2000/svg" xmlns:xlink="http://www.w3.org/1999/xlink" width="250" zoomAndPan="magnify" viewBox="0 0 187.5 127.500001" height="170" preserveAspectRatio="xMidYMid meet" version="1.0"><defs><g/><clipPath id="f07628e739"><path d="M 0.117188 10 L 137.195312 10 L 137.195312 126.554688 L 0.117188 126.554688 Z M 0.117188 10 " clip-rule="nonzero"/></clipPath><clipPath id="469d898f8c"><path d="M 116.714844 0 L 186.886719 0 L 186.886719 61.832031 L 116.714844 61.832031 Z M 116.714844 0 " clip-rule="nonzero"/></clipPath><clipPath id="c159907a14"><path d="M 162.828125 0 L 141.269531 0 C 127.707031 0 116.714844 10.738281 116.714844 23.984375 C 116.714844 33.574219 122.480469 41.847656 130.804688 45.683594 L 130.804688 61.832031 L 147.480469 47.96875 L 162.828125 47.96875 C 176.390625 47.96875 187.382812 37.230469 187.382812 23.984375 C 187.382812 10.738281 176.390625 0 162.828125 0 Z M 162.828125 0 " clip-rule="nonzero"/></clipPath></defs><g clip-path="url(#f07628e739)"><path fill="#ffbd59" d="M 102.925781 88.925781 C 102.925781 94.609375 98.324219 99.207031 92.644531 99.207031 C 86.972656 99.207031 82.371094 94.609375 82.371094 88.925781 C 82.371094 83.246094 86.972656 78.648438 92.644531 78.648438 C 98.324219 78.648438 102.925781 83.246094 102.925781 88.925781 Z M 54.953125 88.925781 C 54.953125 94.609375 50.339844 99.207031 44.671875 99.207031 C 38.988281 99.207031 34.386719 94.609375 34.386719 88.925781 C 34.386719 83.246094 38.988281 78.648438 44.671875 78.648438 C 50.339844 78.648438 54.953125 83.246094 54.953125 88.925781 Z M 116.640625 106.054688 C 116.628906 113.621094 110.496094 119.75 102.925781 119.75 L 34.386719 119.75 C 26.816406 119.75 20.683594 113.621094 20.683594 106.054688 L 20.683594 71.800781 C 20.683594 64.234375 26.816406 58.105469 34.386719 58.089844 L 102.925781 58.089844 C 110.496094 58.105469 116.628906 64.234375 116.640625 71.800781 Z M 126.914062 78.648438 L 123.480469 78.648438 L 123.480469 71.800781 C 123.480469 60.453125 114.28125 51.242188 102.925781 51.242188 L 75.507812 51.242188 L 75.507812 35.648438 C 82.066406 31.867188 84.320312 23.484375 80.523438 16.929688 C 76.738281 10.371094 68.363281 8.132812 61.804688 11.917969 C 55.246094 15.699219 52.992188 24.082031 56.792969 30.625 C 57.984375 32.71875 59.722656 34.445312 61.804688 35.648438 L 61.804688 51.242188 L 34.386719 51.242188 C 23.03125 51.242188 13.820312 60.453125 13.820312 71.800781 L 13.820312 78.648438 L 10.402344 78.648438 C 4.71875 78.648438 0.117188 83.246094 0.117188 88.925781 C 0.117188 94.609375 4.71875 99.207031 10.402344 99.207031 L 13.820312 99.207031 L 13.820312 106.054688 C 13.820312 117.402344 23.03125 126.609375 34.386719 126.609375 L 102.925781 126.609375 C 114.28125 126.609375 123.480469 117.402344 123.480469 106.054688 L 123.480469 99.207031 L 126.914062 99.207031 C 132.59375 99.207031 137.195312 94.609375 137.195312 88.925781 C 137.195312 83.246094 132.59375 78.648438 126.914062 78.648438 " fill-opacity="1" fill-rule="nonzero"/></g><g clip-path="url(#469d898f8c)"><g clip-path="url(#c159907a14)"><path fill="#ffbd59" d="M 116.714844 0 L 187.382812 0 L 187.382812 61.832031 L 116.714844 61.832031 Z M 116.714844 0 " fill-opacity="1" fill-rule="nonzero"/></g></g><g fill="#ffffff" fill-opacity="1"><g transform="translate(136.894299, 32.20969)"><g><path d="M 1.265625 -1.53125 C 1.265625 -2.132812 1.425781 -2.585938 1.75 -2.890625 C 2.070312 -3.203125 2.539062 -3.359375 3.15625 -3.359375 C 3.75 -3.359375 4.207031 -3.203125 4.53125 -2.890625 C 4.863281 -2.578125 5.03125 -2.125 5.03125 -1.53125 C 5.03125 -0.96875 4.863281 -0.519531 4.53125 -0.1875 C 4.195312 0.132812 3.738281 0.296875 3.15625 0.296875 C 2.550781 0.296875 2.082031 0.132812 1.75 -0.1875 C 1.425781 -0.507812 1.265625 -0.957031 1.265625 -1.53125 Z M 1.265625 -1.53125 "/></g></g></g><g fill="#ffffff" fill-opacity="1"><g transform="translate(143.175469, 32.20969)"><g/></g></g><g fill="#ffffff" fill-opacity="1"><g transform="translate(148.897357, 32.20969)"><g><path d="M 1.265625 -1.53125 C 1.265625 -2.132812 1.425781 -2.585938 1.75 -2.890625 C 2.070312 -3.203125 2.539062 -3.359375 3.15625 -3.359375 C 3.75 -3.359375 4.207031 -3.203125 4.53125 -2.890625 C 4.863281 -2.578125 5.03125 -2.125 5.03125 -1.53125 C 5.03125 -0.96875 4.863281 -0.519531 4.53125 -0.1875 C 4.195312 0.132812 3.738281 0.296875 3.15625 0.296875 C 2.550781 0.296875 2.082031 0.132812 1.75 -0.1875 C 1.425781 -0.507812 1.265625 -0.957031 1.265625 -1.53125 Z M 1.265625 -1.53125 "/></g></g></g><g fill="#ffffff" fill-opacity="1"><g transform="translate(155.178527, 32.20969)"><g/></g></g><g fill="#ffffff" fill-opacity="1"><g transform="translate(160.900415, 32.20969)"><g><path d="M 1.265625 -1.53125 C 1.265625 -2.132812 1.425781 -2.585938 1.75 -2.890625 C 2.070312 -3.203125 2.539062 -3.359375 3.15625 -3.359375 C 3.75 -3.359375 4.207031 -3.203125 4.53125 -2.890625 C 4.863281 -2.578125 5.03125 -2.125 5.03125 -1.53125 C 5.03125 -0.96875 4.863281 -0.519531 4.53125 -0.1875 C 4.195312 0.132812 3.738281 0.296875 3.15625 0.296875 C 2.550781 0.296875 2.082031 0.132812 1.75 -0.1875 C 1.425781 -0.507812 1.265625 -0.957031 1.265625 -1.53125 Z M 1.265625 -1.53125 "/></g></g></g></svg>